<?xml version="1.0" encoding="UTF-8" standalone="no"?>
<!-- Created with Inkscape (http://www.inkscape.org/) -->

<svg
   xmlns:dc="http://purl.org/dc/elements/1.1/"
   xmlns:cc="http://creativecommons.org/ns#"
   xmlns:rdf="http://www.w3.org/1999/02/22-rdf-syntax-ns#"
   xmlns:svg="http://www.w3.org/2000/svg"
   xmlns="http://www.w3.org/2000/svg"
   xmlns:sodipodi="http://sodipodi.sourceforge.net/DTD/sodipodi-0.dtd"
   xmlns:inkscape="http://www.inkscape.org/namespaces/inkscape"
   id="svg2"
   version="1.1"
   inkscape:version="0.48.4 r9939"
   width="202"
   height="202"
   sodipodi:docname="AppTileIcon.svg"
   inkscape:export-filename="C:\Users\bill\SkyDrive\Projects\apps\medicare-hospitals\medicare-hospitals\Assets\Tiles\IconicTileMediumLarge.png"
   inkscape:export-xdpi="90"
   inkscape:export-ydpi="90">
  <metadata
     id="metadata8">
    <rdf:RDF>
      <cc:Work
         rdf:about="">
        <dc:format>image/svg+xml</dc:format>
        <dc:type
           rdf:resource="http://purl.org/dc/dcmitype/StillImage" />
        <dc:title />
      </cc:Work>
    </rdf:RDF>
  </metadata>
  <defs
     id="defs6" />
  <sodipodi:namedview
     pagecolor="#ffffff"
     bordercolor="#666666"
     borderopacity="1"
     objecttolerance="10"
     gridtolerance="10"
     guidetolerance="10"
     inkscape:pageopacity="0"
     inkscape:pageshadow="2"
     inkscape:window-width="1920"
     inkscape:window-height="1017"
     id="namedview4"
     showgrid="false"
     inkscape:zoom="3.304499"
     inkscape:cx="-20.998944"
     inkscape:cy="107.81017"
     inkscape:window-x="-8"
     inkscape:window-y="-8"
     inkscape:window-maximized="1"
     inkscape:current-layer="layer1" />
  <path
     style="fill:#ffffff;fill-opacity:1;stroke:none"
     d="m 101.00941,33.999997 c -37.004118,0 -67.009408,29.986471 -67.009408,66.990603 0,37.00411 30.00529,67.0094 67.009408,67.0094 C 138.01352,168 168,137.99471 168,100.9906 168,63.986468 138.01352,33.999997 101.00941,33.999997 z m 0,17.551874 c 8.17505,0 14.74884,6.573793 14.74884,14.748844 l 0,20.091529 20.09154,0.188136 c 8.17455,0.08743 14.68539,6.781228 14.59834,14.95578 -0.0875,8.1746 -6.72475,14.64777 -14.89934,14.56071 l -19.79054,-0.18811 0,19.79054 c 0,8.175 -6.57379,14.74883 -14.74884,14.74883 -8.175005,0 -14.767654,-6.57383 -14.767654,-14.74883 l 0,-20.09154 -20.091536,-0.20695 c -8.174547,-0.0874 -14.685399,-6.78118 -14.598345,-14.95576 0.08746,-8.174557 6.724792,-14.647787 14.89934,-14.560727 l 19.790541,0.206942 0,-19.790542 c 0,-8.175051 6.592649,-14.748845 14.767654,-14.748845 z"
     id="path4850-6"
     inkscape:connector-curvature="0" />
  <g
     inkscape:groupmode="layer"
     id="layer1"
     inkscape:label="Layer">
    <rect
       style="fill:#0000ff;fill-opacity:1;stroke:none"
       id="rect3013"
       width="202.75388"
       height="202.45126"
       x="-0.30261773"
       y="-0.14864643" />
  </g>
  <g
     inkscape:groupmode="layer"
     id="layer2"
     inkscape:label="Layer#1">
    <path
       style="fill:#ffffff;fill-opacity:1;stroke:none"
       d="M 101.00941,34 C 64.00529,34 34,63.986471 34,100.9906 34,137.99471 64.00529,168 101.00941,168 138.01352,168 168,137.99471 168,100.9906 168,63.986471 138.01352,34 101.00941,34 z m 0,17.551874 c 8.17505,0 14.74884,6.573793 14.74884,14.748844 l 0,20.091529 20.09154,0.188136 c 8.17455,0.08743 14.68539,6.781228 14.59834,14.955777 -0.0875,8.1746 -6.72475,14.64777 -14.89934,14.56071 l -19.79054,-0.18811 0,19.79054 c 0,8.175 -6.57379,14.74883 -14.74884,14.74883 -8.175007,0 -14.767656,-6.57383 -14.767656,-14.74883 l 0,-20.09154 -20.091536,-0.20695 c -8.174547,-0.0874 -14.685399,-6.78118 -14.598345,-14.95576 0.08746,-8.174554 6.724792,-14.647784 14.89934,-14.560724 l 19.790541,0.206942 0,-19.790542 c 0,-8.175051 6.592649,-14.748845 14.767656,-14.748845 z"
       id="path4850-6-1"
       inkscape:connector-curvature="0" />
  </g>
</svg>
