<?xml version="1.0" encoding="UTF-8" standalone="no"?>
<!-- Created with Inkscape (http://www.inkscape.org/) -->

<svg
   xmlns:dc="http://purl.org/dc/elements/1.1/"
   xmlns:cc="http://creativecommons.org/ns#"
   xmlns:rdf="http://www.w3.org/1999/02/22-rdf-syntax-ns#"
   xmlns:svg="http://www.w3.org/2000/svg"
   xmlns="http://www.w3.org/2000/svg"
   xmlns:sodipodi="http://sodipodi.sourceforge.net/DTD/sodipodi-0.dtd"
   xmlns:inkscape="http://www.inkscape.org/namespaces/inkscape"
   id="svg2"
   version="1.1"
   inkscape:version="0.48.4 r9939"
   width="300"
   height="300"
   sodipodi:docname="AppTileIcon.svg"
   inkscape:export-filename="C:\Users\bill\SkyDrive\Projects\apps\medicare-hospitals\art\AppTileIcon.png"
   inkscape:export-xdpi="90"
   inkscape:export-ydpi="90">
  <metadata
     id="metadata8">
    <rdf:RDF>
      <cc:Work
         rdf:about="">
        <dc:format>image/svg+xml</dc:format>
        <dc:type
           rdf:resource="http://purl.org/dc/dcmitype/StillImage" />
        <dc:title></dc:title>
      </cc:Work>
    </rdf:RDF>
  </metadata>
  <defs
     id="defs6" />
  <sodipodi:namedview
     pagecolor="#ffffff"
     bordercolor="#666666"
     borderopacity="1"
     objecttolerance="10"
     gridtolerance="10"
     guidetolerance="10"
     inkscape:pageopacity="0"
     inkscape:pageshadow="2"
     inkscape:window-width="1920"
     inkscape:window-height="1017"
     id="namedview4"
     showgrid="false"
     inkscape:zoom="2.3366337"
     inkscape:cx="61.87296"
     inkscape:cy="159.99445"
     inkscape:window-x="-8"
     inkscape:window-y="-8"
     inkscape:window-maximized="1"
     inkscape:current-layer="layer1" />
  <g
     inkscape:groupmode="layer"
     id="layer1"
     inkscape:label="background">
    <rect
       style="fill:#0000ff;fill-opacity:1;stroke:none"
       id="rect3014"
       width="300"
       height="300"
       x="0"
       y="0" />
  </g>
  <g
     inkscape:groupmode="layer"
     id="layer2"
     inkscape:label="foreground"
     sodipodi:insensitive="true">
    <path
       style="fill:#ffffff;fill-opacity:1;stroke:none"
       d="m 150.01599,36.137712 c -62.886166,0 -113.87827,50.960121 -113.87827,113.846318 0,62.88616 50.992104,113.87826 113.87827,113.87826 62.88616,0 113.84629,-50.9921 113.84629,-113.87826 0,-62.886197 -50.96013,-113.846318 -113.84629,-113.846318 z m 0,29.8283 c 13.89298,0 25.06472,11.171743 25.06472,25.064744 l 0,34.144274 34.14431,0.31973 c 13.89214,0.14853 24.9569,11.52428 24.80897,25.41641 -0.14871,13.89222 -11.42829,24.89297 -25.3205,24.74501 l -33.63278,-0.31968 0,33.63278 c 0,13.8929 -11.17174,25.06471 -25.06472,25.06471 -13.89291,0 -25.0967,-11.17181 -25.0967,-25.06471 l 0,-34.14431 -34.144296,-0.3517 C 76.882866,174.32474 65.818082,162.94908 65.966025,149.0569 c 0.148633,-13.89215 11.428361,-24.893 25.320492,-24.74505 l 33.632773,0.3517 0,-33.632794 c 0,-13.892984 11.20379,-25.064727 25.0967,-25.064727 z"
       id="path4850-6"
       inkscape:connector-curvature="0" />
  </g>
</svg>
